<svg width="25" height="25" viewBox="0 0 25 25" fill="none" xmlns="http://www.w3.org/2000/svg">
<g clip-path="url(#clip0_1_8379)">
<path d="M22.5904 3.85906C20.0357 1.68406 16.2154 2.045 13.8435 4.49188L12.9201 5.44813L11.9966 4.49656C10.0841 2.51844 6.22632 1.32781 3.24976 3.85906C0.306007 6.37156 0.15132 10.8809 2.78569 13.5997L11.856 22.9653C12.1466 23.2653 12.531 23.42 12.9154 23.42C13.2998 23.42 13.6841 23.27 13.9748 22.9653L23.0451 13.5997C25.6888 10.8809 25.5341 6.37156 22.5904 3.85906ZM21.9763 12.5591L12.9388 21.9247L3.86382 12.5591C2.06382 10.7028 1.68882 7.16375 4.22476 5.00281C6.79351 2.80906 9.81226 4.39813 10.9185 5.54188L12.9201 7.60906L14.9216 5.54188C16.0091 4.41688 19.056 2.82313 21.6154 5.00281C24.1466 7.15906 23.7763 10.6981 21.9763 12.5591Z" fill="black"/>
</g>
<defs>
<clipPath id="clip0_1_8379">
<rect width="24" height="24" fill="white" transform="translate(0.920044 0.920013)"/>
</clipPath>
</defs>
</svg>
